#!OML:ASF I:\Actors\actors\Patient Classification 1\Patient 1\Session 1\Subject1.ASF
:FULLY-SPECIFIED
:DEGREES
577
root -1.78012 17.5546 8.23791 4.28612 12.4443 -8.32145
lowerback 2.27729 3.30726 5.88786
upperback -12.1796 5.03314 -1.32927
thorax -14.0285 1.67695 -5.44946
lowerneck -9.87545 -10.5437 -8.14954
upperneck 27.1677 -18.3897 16.1376
head 13.1439 -7.31587 4.73344
rclavicle -4.57205e-014 -2.8625e-014
rhumerus 95.7335 54.0727 -31.1237
rradius 97.5718
rwrist 28.1911
rhand -22.4515 -27.6682
rfingers 7.12502
rthumb 3.97276 302.389
lclavicle -4.57205e-014 -2.8625e-014
lhumerus 17.5563 9.9324 97.2114
lradius 151.032
lwrist 40.1689
lhand -45.8562 -43.5672
lfingers 7.12502
lthumb -18.6074 -14.4372
rfemur 1.39191 14.8855 33.0563
rtibia 5.25479
rfoot -17.3421 -21.3841
rtoes 11.279
lfemur -1.30452 -28.9206 -4.91505
ltibia 2.88315
lfoot -9.08398 27.9498
ltoes -17.7128
578
root -1.77465 17.5572 8.25785 4.09735 12.6219 -8.30153
lowerback 1.99654 3.41743 5.95726
upperback -12.3869 5.18114 -1.35107
thorax -14.078 1.73496 -5.51858
lowerneck -9.65492 -10.7021 -8.34257
upperneck 27.4351 -18.6507 16.1182
head 13.272 -7.45063 4.72983
rclavicle -7.43455e-014 -2.22639e-014
rhumerus 97.7678 51.9782 -30.0635
rradius 99.8412
rwrist 29.1453
rhand -21.7048 -25.724
rfingers 7.12502
rthumb 4.69384 304.348
lclavicle -7.43455e-014 -2.22639e-014
lhumerus 22.2043 8.33648 96.7234
lradius 152.352
lwrist 39.6526
lhand -45.4313 -44.1566
lfingers 7.12502
lthumb -18.1986 -14.9879
rfemur 1.78071 14.9414 33.1483
rtibia 5.07834
rfoot -17.4192 -21.6698
rtoes 11.2214
lfemur -1.07835 -28.9133 -5.06948
ltibia 2.89702
lfoot -9.16669 27.7725
ltoes -17.7223
579
root -1.76384 17.5592 8.27967 3.99598 12.7229 -8.27831
lowerback 1.69713 3.51687 6.04825
upperback -12.6056 5.31784 -1.3516
thorax -14.1324 1.78619 -5.57304
lowerneck -9.52987 -10.8368 -8.52869
upperneck 27.6914 -18.8575 16.0481
head 13.4003 -7.56169 4.70916
rclavicle 8.26944e-014 2.70347e-014
rhumerus 99.8245 49.9375 -28.8475
rradius 101.876
rwrist 31.4495
rhand -21.5304 -24.5454
rfingers 7.12502
rthumb 4.86224 305.53
lclavicle 8.26944e-014 2.70347e-014
lhumerus 26.8415 6.83785 95.836
lradius 153.496
lwrist 39.169
lhand -44.9668 -44.7595
lfingers 7.12502
lthumb -17.7517 -15.5498
rfemur 2.13258 15.0529 33.2055
rtibia 4.81511
rfoot -17.4078 -21.9664
rtoes 10.9369
lfemur -0.89306 -28.9493 -5.21929
ltibia 2.89678
lfoot -9.29024 27.6938
ltoes -17.6303
580
root -1.74838 17.5604 8.30278 3.96772 12.7428 -8.25823
lowerback 1.39754 3.61071 6.1688
upperback -12.8322 5.45143 -1.33468
thorax -14.1968 1.83296 -5.6238
lowerneck -9.48048 -10.9508 -8.73851
upperneck 27.9132 -19.027 15.9988
head 13.5307 -7.65423 4.70186
rclavicle -9.93923e-015 9.54166e-015
rhumerus 101.652 48.0079 -27.8508
rradius 103.732
rwrist 34.0956
rhand -21.7092 -23.3513
rfingers 7.12502
rthumb 4.6896 306.721
lclavicle -9.93923e-015 9.54166e-015
lhumerus 31.439 5.54819 94.5488
lradius 154.459
lwrist 38.6845
lhand -44.4639 -45.402
lfingers 7.12502
lthumb -17.2677 -16.1491
rfemur 2.44543 15.22 33.2364
rtibia 4.49672
rfoot -17.3523 -22.2401
rtoes 10.5947
lfemur -0.738756 -28.9817 -5.35389
ltibia 2.8802
lfoot -9.44657 27.6738
ltoes -17.4932
581
root -1.72903 17.5612 8.32659 3.99992 12.675 -8.23867
lowerback 1.11455 3.7088 6.31517
upperback -13.0619 5.59493 -1.30792
thorax -14.2741 1.88107 -5.67985
lowerneck -9.53264 -11.0561 -8.93537
upperneck 28.1428 -19.1763 15.9244
head 13.6793 -7.73314 4.68038
rclavicle -3.53837e-014 -1.59028e-015
rhumerus 103.418 46.1773 -26.8612
rradius 105.923
rwrist 35.2862
rhand -21.1281 -22.9413
rfingers 7.12502
rthumb 5.25063 307.144
lclavicle -3.53837e-014 -1.59028e-015
lhumerus 35.9553 4.54116 92.8987
lradius 155.249
lwrist 38.1597
lhand -43.9187 -46.0289
lfingers 7.12502
lthumb -16.7429 -16.7309
rfemur 2.71327 15.441 33.2388
rtibia 4.16144
rfoot -17.2896 -22.4625
rtoes 10.313
lfemur -0.600132 -28.976 -5.47876
ltibia 2.84063
lfoot -9.62012 27.6932
ltoes -17.3665
582
root -1.70647 17.5619 8.35067 4.08048 12.5135 -8.20689
lowerback 0.859991 3.81176 6.46732
upperback -13.2864 5.74764 -1.27161
thorax -14.3627 1.93256 -5.73087
lowerneck -9.66972 -11.1525 -9.14498
upperneck 28.3383 -19.3092 15.8777
head 13.8358 -7.79996 4.66872
rclavicle 1.12512e-013 2.78299e-014
rhumerus 104.995 44.491 -26.0681
rradius 108.088
rwrist 35.8655
rhand -20.501 -22.7521
rfingers 7.12502
rthumb 5.85615 307.349
lclavicle 1.12512e-013 2.78299e-014
lhumerus 40.3425 3.89545 90.9478
lradius 155.895
lwrist 37.5719
lhand -43.3723 -46.4785
lfingers 7.12502
lthumb -16.2169 -17.1368
rfemur 2.93466 15.7095 33.2006
rtibia 3.8402
rfoot -17.2325 -22.6183
rtoes 10.1032
lfemur -0.457312 -28.9153 -5.61667
ltibia 2.7717
lfoot -9.79934 27.747
ltoes -17.2453
583
root -1.68134 17.563 8.37481 4.19273 12.2587 -8.15467
lowerback 0.642299 3.9219 6.61214
upperback -13.4998 5.91164 -1.22868
thorax -14.4611 1.98983 -5.77355
lowerneck -9.88064 -11.2513 -9.35929
upperneck 28.5115 -19.4406 15.8405
head 14.0017 -7.86243 4.65627
rclavicle 8.34896e-014 1.43125e-014
rhumerus 106.366 42.9787 -25.4876
rradius 110.02
rwrist 36.519
rhand -20.1222 -22.5308
rfingers 7.12502
rthumb 6.22186 307.581
lclavicle 8.34896e-014 1.43125e-014
lhumerus 44.5456 3.683 88.7898
lradius 156.415
lwrist 36.9817
lhand -42.9082 -46.7168
lfingers 7.12502
lthumb -15.77 -17.3392
rfemur 3.11733 16.0108 33.1153
rtibia 3.55366
rfoot -17.184 -22.6969
rtoes 9.95929
lfemur -0.284883 -28.8191 -5.7943
ltibia 2.67158
lfoot -9.98366 27.8549
ltoes -17.0721
584
root -1.65407 17.5648 8.39885 4.31959 11.921 -8.07765
lowerback 0.468472 4.04239 6.74562
upperback -13.6958 6.09056 -1.18547
thorax -14.5647 2.05493 -5.81342
lowerneck -10.1053 -11.3409 -9.60428
upperneck 28.5877 -19.5615 15.895
head 14.1448 -7.9172 4.68324
rclavicle -2.98177e-014 -2.78299e-014
rhumerus 107.509 41.6618 -25.1471
rradius 111.709
rwrist 37.2218
rhand -20.027 -22.2039
rfingers 7.12502
rthumb 6.3137 307.91
lclavicle -2.98177e-014 -2.78299e-014
lhumerus 48.525 3.90952 86.5414
lradius 156.815
lwrist 36.5003
lhand -42.5476 -46.7532
lfingers 7.12502
lthumb -15.4226 -17.3485
rfemur 3.2727 16.3262 32.981
rtibia 3.31075
rfoot -17.1434 -22.6999
rtoes 9.84877
lfemur -0.0614439 -28.7389 -6.03855
ltibia 2.54452
lfoot -10.1784 28.0533
ltoes -16.7745
585
root -1.62503 17.5678 8.42286 4.44555 11.5216 -7.98057
lowerback 0.339457 4.17366 6.87076
upperback -13.8694 6.28453 -1.14833
thorax -14.6668 2.12753 -5.85911
lowerneck -10.3592 -11.4339 -9.83327
upperneck 28.6138 -19.6867 15.9737
head 14.2759 -7.96985 4.71267
rclavicle -1.86858e-014 -3.97569e-015
rhumerus 108.422 40.5351 -25.0345
rradius 113.174
rwrist 37.9367
rhand -20.2266 -21.8428
rfingers 7.12502
rthumb 6.12101 308.266
lclavicle -1.86858e-014 -3.97569e-015
lhumerus 52.2425 4.48321 84.288
lradius 157.094
lwrist 36.1791
lhand -42.2834 -46.5235
lfingers 7.12502
lthumb -15.1682 -17.0994
rfemur 3.41283 16.6352 32.8076
rtibia 3.11074
rfoot -17.0995 -22.6436
rtoes 9.66902
lfemur 0.222727 -28.7171 -6.35711
ltibia 2.39615
lfoot -10.3822 28.3563
ltoes -16.3271
586
root -1.59472 17.5719 8.447 4.56032 11.0843 -7.87603
lowerback 0.252579 4.31332 6.99123
upperback -14.0193 6.49052 -1.11754
thorax -14.7637 2.20601 -5.91247
lowerneck -10.5992 -11.5304 -10.0447
upperneck 28.547 -19.8178 16.1012
head 14.3696 -8.02262 4.75468
rclavicle -1.66979e-014 -3.33958e-014
rhumerus 109.115 39.5747 -25.1252
rradius 114.428
rwrist 38.6302
rhand -20.7214 -21.5057
rfingers 7.12502
rthumb 5.64337 308.589
lclavicle -1.66979e-014 -3.33958e-014
lhumerus 55.6669 5.29832 82.0697
lradius 157.24
lwrist 36.0099
lhand -42.091 -46.0693
lfingers 7.12502
lthumb -14.9828 -16.6313
rfemur 3.54586 16.9259 32.6145
rtibia 2.95077
rfoot -17.051 -22.543
rtoes 9.3772
lfemur 0.564548 -28.7683 -6.73549
ltibia 2.22907
lfoot -10.5859 28.7542
ltoes -15.7667
587
root -1.56355 17.5768 8.47144 4.66259 10.6292 -7.77858
lowerback 0.19984 4.45863 7.11176
upperback -14.1485 6.70499 -1.09263
thorax -14.8541 2.28826 -5.97479
lowerneck -10.8371 -11.6391 -10.1853
upperneck 28.4156 -19.9626 16.2125
head 14.4255 -8.07821 4.77256
rclavicle 3.73715e-014 -1.51076e-014
rhumerus 109.592 38.7452 -25.4115
rradius 115.486
rwrist 39.2798
rhand -21.4531 -21.2298
rfingers 7.12502
rthumb 4.93687 308.848
lclavicle 3.73715e-014 -1.51076e-014
lhumerus 58.7849 6.23473 79.8968
lradius 157.24
lwrist 35.8929
lhand -41.9264 -45.3893
lfingers 7.12502
lthumb -14.8243 -15.9396
rfemur 3.67358 17.2053 32.4219
rtibia 2.82433
rfoot -17.0116 -22.4124
rtoes 9.04212
lfemur 0.946582 -28.8711 -7.1428
ltibia 2.04354
lfoot -10.7766 29.2143
ltoes -15.165
588
root -1.5318 17.5821 8.49638 4.75845 10.1745 -7.70051
lowerback 0.169734 4.60814 7.23757
upperback -14.2637 6.92596 -1.07482
thorax -14.9387 2.37256 -6.04956
lowerneck -11.0931 -11.7624 -10.2527
upperneck 28.2642 -20.1349 16.3097
head 14.4705 -8.13867 4.76457
rclavicle 1.51076e-014 -1.27222e-014
rhumerus 109.87 38.0038 -25.8656
rradius 116.352
rwrist 39.8702
rhand -22.3685 -21.0298
rfingers 7.12502
rthumb 4.05288 309.029
lclavicle 1.51076e-014 -1.27222e-014
lhumerus 61.6012 7.18073 77.7902
lradius 157.092
lwrist 35.6844
lhand -41.7747 -44.421
lfingers 7.12502
lthumb -14.6781 -14.9606
rfemur 3.79471 17.487 32.2475
rtibia 2.71807
rfoot -16.9853 -22.2716
rtoes 8.72862
lfemur 1.34521 -28.9929 -7.54414
ltibia 1.83845
lfoot -10.9388 29.7001
ltoes -14.6175
589
root -1.49966 17.5873 8.52191 4.85961 9.73273 -7.64097
lowerback 0.150675 4.76218 7.3637
upperback -14.3725 7.15311 -1.06422
thorax -15.0198 2.45925 -6.13353
lowerneck -11.3716 -11.9016 -10.2538
upperneck 28.1178 -20.3342 16.3741
head 14.5143 -8.20519 4.72491
rclavicle -5.24792e-014 3.18055e-015
rhumerus 109.981 37.313 -26.4524
rradius 117.019
rwrist 40.3976
rhand -23.4052 -20.9032
rfingers 7.12502
rthumb 3.05179 309.139
lclavicle -5.24792e-014 3.18055e-015
lhumerus 64.1474 8.08 75.8285
lradius 156.809
lwrist 35.3251
lhand -41.6252 -43.1468
lfingers 7.12502
lthumb -14.5341 -13.6759
rfemur 3.90557 17.7828 32.0913
rtibia 2.61353
rfoot -16.9609 -22.1404
rtoes 8.45846
lfemur 1.74287 -29.1305 -7.92618
ltibia 1.60886
lfoot -11.0661 30.2086
ltoes -14.1846
